<svg width="54" height="72" viewBox="0 0 54 72" fill="none" xmlns="http://www.w3.org/2000/svg">
<path d="M17.9439 24.785C17.9439 17.1007 24.0704 9.59568 31.4019 9.59568C33.1149 9.59568 34.7521 9.93576 36.2554 10.555C36.6171 10.7072 36.9698 10.8718 37.3131 11.0478C41.678 13.3268 44.6767 18.0511 44.6767 23.5094H44.7132C44.0585 29.9459 37.6376 35.8878 29.3832 35.8878V44.8598C41.7916 44.8598 53.0754 35.6234 53.7119 23.5094H53.8318C53.8318 22.5191 53.7734 21.5431 53.6599 20.585C53.4111 17.7434 52.5922 15.0854 51.3203 12.6896C47.5848 5.15026 40.0672 0 31.4019 0C19.0142 0 8.85981 11.8012 8.85981 24.785H17.9439Z" fill="#7B61FF"/>
<path d="M8.97196 26.9159H17.9439V35.8878H26.9159V44.8598H17.9439V72H8.97196V44.8598L0 35.8878H8.97196V26.9159Z" fill="#7B61FF"/>
<path d="M26.9159 20.1869C26.9159 21.4257 25.9117 22.4299 24.6729 22.4299C23.4341 22.4299 22.4299 21.4257 22.4299 20.1869C22.4299 18.9481 23.4341 17.9439 24.6729 17.9439C25.9117 17.9439 26.9159 18.9481 26.9159 20.1869Z" fill="#7B61FF"/>
<path d="M29.3832 47.215L29.6075 62.8037C29.7196 65.8318 32.3888 71.7757 38.1308 71.7757H45.1963C48.0748 71.9626 53.8318 70.4299 53.8318 62.8037V33.757C52.785 35.9626 49.5925 40.8673 45.1963 42.8411V62.8037C44.0374 63.6262 41.0019 64.7776 38.1308 62.8037V46.2056C36.5607 46.6542 32.6131 47.4841 29.3832 47.215Z" fill="#7B61FF"/>
</svg>
