<svg width="32" height="33" viewBox="0 0 32 33" fill="none" xmlns="http://www.w3.org/2000/svg">
<path d="M0 16.5C0 7.66344 7.16344 0.5 16 0.5C24.8366 0.5 32 7.66344 32 16.5C32 25.3366 24.8366 32.5 16 32.5C7.16344 32.5 0 25.3366 0 16.5Z" fill="#F8F8F8"/>
<g clip-path="url(#clip0)">
<path d="M17.1156 16.5L21.1844 20.5688C21.2172 20.6344 21.25 20.7 21.25 20.7656C21.25 20.8313 21.2172 20.8969 21.1844 20.9297L20.4297 21.6844C20.3641 21.75 20.2984 21.75 20.2328 21.75C20.1672 21.75 20.1016 21.75 20.0688 21.6844L16 17.6156L11.9313 21.6844C11.8656 21.75 11.8 21.75 11.7344 21.75C11.6688 21.75 11.6031 21.75 11.5703 21.6844L10.8156 20.9297C10.75 20.8969 10.75 20.8313 10.75 20.7656C10.75 20.7 10.75 20.6344 10.8156 20.5688L14.8844 16.5L10.8156 12.4313C10.75 12.3984 10.75 12.3328 10.75 12.2672C10.75 12.2016 10.75 12.1359 10.8156 12.0703L11.5703 11.3156C11.6031 11.2828 11.6688 11.25 11.7344 11.25C11.8 11.25 11.8656 11.2828 11.9313 11.3156L16 15.3844L20.0688 11.3156C20.1016 11.2828 20.1672 11.25 20.2328 11.25C20.2984 11.25 20.3641 11.2828 20.4297 11.3156L21.1844 12.0703C21.2172 12.1359 21.25 12.2016 21.25 12.2672C21.25 12.3328 21.2172 12.3984 21.1844 12.4313L17.1156 16.5Z" fill="#1D1B1B"/>
</g>
<defs>
<clipPath id="clip0">
<rect width="18" height="18" fill="white" transform="translate(7 7.5)"/>
</clipPath>
</defs>
</svg>
