<svg width="24" height="24" viewBox="0 0 24 24" fill="none" xmlns="http://www.w3.org/2000/svg">
<path fill-rule="evenodd" clip-rule="evenodd" d="M2.44714 4.74321C2.72703 4.43787 3.20146 4.41724 3.5068 4.69714L12 12.4826L20.4932 4.69714C20.7985 4.41724 21.273 4.43787 21.5529 4.74321C21.8328 5.04855 21.8121 5.52298 21.5068 5.80287L12.5068 14.0529C12.2201 14.3157 11.78 14.3157 11.4932 14.0529L2.49321 5.80287C2.18787 5.52298 2.16724 5.04855 2.44714 4.74321Z" fill="#222D34"/>
<path fill-rule="evenodd" clip-rule="evenodd" d="M2.25 5.25C2.25 4.83579 2.58579 4.5 3 4.5H21C21.4142 4.5 21.75 4.83579 21.75 5.25V18C21.75 18.3978 21.592 18.7794 21.3107 19.0607C21.0294 19.342 20.6478 19.5 20.25 19.5H3.75C3.35218 19.5 2.97065 19.342 2.68934 19.0607C2.40804 18.7794 2.25 18.3978 2.25 18V5.25ZM3.75 6V18H20.25V6H3.75Z" fill="#222D34"/>
<path fill-rule="evenodd" clip-rule="evenodd" d="M10.9167 11.4932C11.1966 11.7985 11.176 12.273 10.8706 12.5529L3.73824 19.0909C3.43291 19.3708 2.95848 19.3502 2.67859 19.0448C2.39869 18.7395 2.41932 18.2651 2.72465 17.9852L9.85702 11.4471C10.1624 11.1672 10.6368 11.1879 10.9167 11.4932Z" fill="#222D34"/>
<path fill-rule="evenodd" clip-rule="evenodd" d="M13.0839 11.4932C13.3637 11.1878 13.8382 11.1672 14.1435 11.4471L21.276 17.9852C21.5814 18.2651 21.602 18.7395 21.3221 19.0448C21.0422 19.3502 20.5678 19.3708 20.2624 19.0909L13.1299 12.5528C12.8246 12.2729 12.804 11.7985 13.0839 11.4932Z" fill="#222D34"/>
</svg>
