<svg width="49" height="48" viewBox="0 0 49 48" fill="none" xmlns="http://www.w3.org/2000/svg">
<rect x="0.0200195" width="48" height="48" rx="24" fill="#1877F2"/>
<path d="M37.9 22.04C37.9 13.7778 31.2022 7.07999 22.94 7.07999C14.6778 7.07999 7.97998 13.7778 7.97998 22.04C7.97998 29.5069 13.4506 35.6959 20.6025 36.8182V26.3644H16.804V22.04H20.6025V18.7441C20.6025 14.9948 22.8359 12.9237 26.2531 12.9237C27.8898 12.9237 29.6018 13.2159 29.6018 13.2159V16.8975H27.7154C25.857 16.8975 25.2775 18.0507 25.2775 19.2337V22.04H29.4265L28.7633 26.3644H25.2775V36.8182C32.4293 35.6959 37.9 29.5069 37.9 22.04Z" fill="#1877F2"/>
<path d="M28.7632 26.3644L29.4264 22.04H25.2774V19.2338C25.2774 18.0507 25.8569 16.8975 27.7153 16.8975H29.6018V13.216C29.6018 13.216 27.8897 12.9238 26.253 12.9238C22.8358 12.9238 20.6024 14.9948 20.6024 18.7441V22.04H16.804V26.3644H20.6024V36.8183C21.364 36.9378 22.1447 37 22.9399 37C23.7351 37 24.5157 36.9378 25.2774 36.8183V26.3644H28.7632Z" fill="white"/>
</svg>
