<svg width="24" height="24" viewBox="0 0 24 24" fill="none" xmlns="http://www.w3.org/2000/svg">
<g clip-path="url(#clip0)">
<path d="M23.52 12.2667C23.52 11.28 23.4399 10.56 23.2667 9.81335H12V14.2666H18.6133C18.48 15.3733 17.76 17.04 16.16 18.1599L16.1375 18.309L19.6999 21.0687L19.9467 21.0934C22.2133 19 23.52 15.92 23.52 12.2667Z" fill="#4285F4"/>
<path d="M12.0001 24C15.24 24 17.96 22.9333 19.9467 21.0934L16.16 18.1599C15.1467 18.8666 13.7867 19.3599 12.0001 19.3599C8.82675 19.3599 6.13343 17.2667 5.17334 14.3734L5.03261 14.3853L1.32847 17.252L1.28003 17.3866C3.25334 21.3066 7.30669 24 12.0001 24Z" fill="#34A853"/>
<path d="M5.17328 14.3733C4.91995 13.6267 4.77334 12.8266 4.77334 12C4.77334 11.1733 4.91995 10.3733 5.15995 9.62664L5.15324 9.46762L1.40268 6.5549L1.27997 6.61327C0.466672 8.23996 0 10.0667 0 12C0 13.9333 0.466672 15.7599 1.27997 17.3866L5.17328 14.3733Z" fill="#FBBC05"/>
<path d="M12.0001 4.63997C14.2534 4.63997 15.7733 5.6133 16.64 6.42669L20.0267 3.12C17.9467 1.18667 15.24 0 12.0001 0C7.30669 0 3.25334 2.69331 1.28003 6.61328L5.16001 9.62666C6.13344 6.73333 8.82675 4.63997 12.0001 4.63997Z" fill="#EB4335"/>
</g>
<defs>
<clipPath id="clip0">
<rect width="23.52" height="24" rx="11.76" fill="white"/>
</clipPath>
</defs>
</svg>
