<svg width="49" height="48" viewBox="0 0 49 48" fill="none" xmlns="http://www.w3.org/2000/svg">
<g clip-path="url(#clip0)">
<path d="M48.02 24.5333C48.02 22.56 47.8599 21.12 47.5133 19.6267H24.98V28.5333H38.2065C37.94 30.7467 36.5 34.08 33.2999 36.3199L33.2551 36.6181L40.3797 42.1374L40.8733 42.1867C45.4065 38 48.02 31.84 48.02 24.5333Z" fill="#4285F4"/>
<path d="M24.9801 48C31.46 48 36.8999 45.8666 40.8734 42.1867L33.3 36.3199C31.2734 37.7332 28.5534 38.7199 24.9801 38.7199C18.6335 38.7199 13.2468 34.5333 11.3267 28.7467L11.0452 28.7706L3.63692 34.5039L3.54004 34.7733C7.48667 42.6132 15.5934 48 24.9801 48Z" fill="#34A853"/>
<path d="M11.3265 28.7467C10.8199 27.2533 10.5267 25.6532 10.5267 24C10.5267 22.3465 10.8199 20.7466 11.2999 19.2533L11.2865 18.9352L3.78534 13.1098L3.53992 13.2265C1.91332 16.4799 0.97998 20.1333 0.97998 24C0.97998 27.8666 1.91332 31.5199 3.53992 34.7732L11.3265 28.7467Z" fill="#FBBC05"/>
<path d="M24.9801 9.27994C29.4867 9.27994 32.5266 11.2266 34.26 12.8534L41.0334 6.24C36.8735 2.37334 31.46 0 24.9801 0C15.5934 0 7.48667 5.38663 3.54004 13.2266L11.3 19.2533C13.2468 13.4667 18.6335 9.27994 24.9801 9.27994Z" fill="#EB4335"/>
</g>
<defs>
<clipPath id="clip0">
<rect x="0.97998" width="47.04" height="48" rx="23.52" fill="white"/>
</clipPath>
</defs>
</svg>
