<svg width="56" height="56" viewBox="0 0 56 56" fill="none" xmlns="http://www.w3.org/2000/svg">
<path d="M36.985 0H7.963C7.155 0 6.5 0.655 6.5 1.926V55C6.5 55.345 7.155 56 7.963 56H48.037C48.845 56 49.5 55.345 49.5 55V12.978C49.5 12.282 49.407 12.058 49.243 11.893L37.607 0.257C37.442 0.093 37.218 0 36.985 0Z" fill="#E9E9E0"/>
<path d="M37.5 0.151001V12H49.349L37.5 0.151001Z" fill="#D9D7CA"/>
<path d="M18.9308 19.0001C21.4542 19.0001 23.4998 16.9544 23.4998 14.4311C23.4998 11.9077 21.4542 9.86206 18.9308 9.86206C16.4074 9.86206 14.3618 11.9077 14.3618 14.4311C14.3618 16.9544 16.4074 19.0001 18.9308 19.0001Z" fill="#F3D55B"/>
<path d="M6.5 39H17.5H49.5V28L39.5 18.5L29 30L23.517 24.517L6.5 39Z" fill="#26B99A"/>
<path d="M48.037 56H7.963C7.155 56 6.5 55.345 6.5 54.537V39H49.5V54.537C49.5 55.345 48.845 56 48.037 56Z" fill="#14A085"/>
<path d="M21.4258 42.65V50.498C21.4258 50.972 21.3388 51.371 21.1658 51.694C20.9928 52.017 20.7598 52.277 20.4688 52.473C20.1768 52.669 19.8418 52.806 19.4638 52.883C19.0848 52.961 18.6958 53 18.2948 53C18.0938 53 17.8588 52.979 17.5908 52.938C17.3218 52.897 17.0438 52.834 16.7568 52.747C16.4698 52.66 16.1938 52.562 15.9298 52.453C15.6648 52.344 15.4418 52.221 15.2598 52.084L15.9568 50.977C16.0478 51.04 16.1778 51.107 16.3468 51.175C16.5148 51.243 16.6998 51.307 16.9008 51.366C17.1008 51.426 17.3108 51.477 17.5298 51.523C17.7488 51.569 17.9538 51.591 18.1448 51.591C18.6278 51.591 19.0128 51.497 19.2998 51.311C19.5868 51.125 19.7388 50.807 19.7578 50.361V42.65H21.4258Z" fill="white"/>
<path d="M25.5136 52.932H23.8726V42.855H26.7706C27.1986 42.855 27.6226 42.923 28.0416 43.06C28.4606 43.197 28.8366 43.402 29.1696 43.675C29.5026 43.948 29.7716 44.279 29.9766 44.666C30.1816 45.053 30.2846 45.488 30.2846 45.972C30.2846 46.483 30.1976 46.945 30.0246 47.36C29.8516 47.775 29.6096 48.124 29.2996 48.406C28.9896 48.688 28.6156 48.907 28.1786 49.062C27.7416 49.217 27.2576 49.294 26.7296 49.294H25.5126V52.932H25.5136ZM25.5136 44.1V48.092H27.0176C27.2176 48.092 27.4156 48.058 27.6126 47.989C27.8086 47.921 27.9886 47.809 28.1526 47.654C28.3166 47.499 28.4486 47.283 28.5486 47.005C28.6486 46.727 28.6986 46.383 28.6986 45.973C28.6986 45.809 28.6756 45.619 28.6306 45.406C28.5846 45.192 28.4916 44.987 28.3506 44.791C28.2086 44.595 28.0106 44.431 27.7556 44.299C27.4996 44.166 27.1626 44.1 26.7436 44.1H25.5136Z" fill="white"/>
<path d="M39.5 47.736V51.632C39.29 51.897 39.056 52.112 38.796 52.281C38.536 52.45 38.263 52.589 37.976 52.698C37.689 52.807 37.393 52.885 37.087 52.93C36.781 52.978 36.479 53 36.178 53C35.576 53 35.023 52.891 34.517 52.672C34.011 52.453 33.569 52.13 33.191 51.701C32.813 51.272 32.516 50.735 32.302 50.088C32.088 49.441 31.981 48.693 31.981 47.846C31.981 46.999 32.088 46.253 32.302 45.611C32.516 44.968 32.812 44.433 33.191 44.005C33.569 43.576 34.013 43.251 34.524 43.027C35.034 42.803 35.586 42.692 36.178 42.692C36.725 42.692 37.235 42.783 37.709 42.965C38.183 43.148 38.606 43.421 38.98 43.785L37.845 44.797C37.626 44.532 37.375 44.341 37.093 44.223C36.81 44.105 36.519 44.045 36.218 44.045C35.881 44.045 35.559 44.108 35.254 44.236C34.948 44.364 34.675 44.58 34.434 44.885C34.192 45.191 34.003 45.584 33.867 46.068C33.731 46.552 33.657 47.143 33.648 47.845C33.657 48.529 33.728 49.121 33.86 49.622C33.992 50.123 34.174 50.533 34.407 50.852C34.64 51.171 34.904 51.408 35.2 51.563C35.496 51.718 35.808 51.795 36.137 51.795C36.237 51.795 36.371 51.788 36.54 51.774C36.708 51.76 36.877 51.738 37.046 51.706C37.214 51.674 37.376 51.631 37.531 51.576C37.686 51.521 37.8 51.444 37.873 51.344V48.856H36.164V47.735H39.5V47.736Z" fill="white"/>
</svg>
