<svg width="36" height="36" viewBox="0 0 36 36" fill="none" xmlns="http://www.w3.org/2000/svg">
<rect width="36" height="36" rx="4" fill="#7F6EF0"/>
<path d="M26.4176 15.1562C25.9318 11.125 22.8807 8.80682 18.8409 8.80682C14.2301 8.80682 10.7102 12.0625 10.7102 17.7727C10.7102 23.4659 14.1705 26.7386 18.8409 26.7386C23.3153 26.7386 26.017 23.7642 26.4176 20.5511L22.6847 20.5341C22.3352 22.4006 20.8693 23.4744 18.9006 23.4744C16.25 23.4744 14.4517 21.5057 14.4517 17.7727C14.4517 14.142 16.2244 12.071 18.9261 12.071C20.946 12.071 22.4034 13.2386 22.6847 15.1562H26.4176Z" fill="black"/>
<path d="M24.4176 15.1562C23.9318 11.125 20.8807 8.80682 16.8409 8.80682C12.2301 8.80682 8.71023 12.0625 8.71023 17.7727C8.71023 23.4659 12.1705 26.7386 16.8409 26.7386C21.3153 26.7386 24.017 23.7642 24.4176 20.5511L20.6847 20.5341C20.3352 22.4006 18.8693 23.4744 16.9006 23.4744C14.25 23.4744 12.4517 21.5057 12.4517 17.7727C12.4517 14.142 14.2244 12.071 16.9261 12.071C18.946 12.071 20.4034 13.2386 20.6847 15.1562H24.4176Z" fill="white"/>
</svg>
