<svg width="24" height="24" viewBox="0 0 24 24" fill="none" xmlns="http://www.w3.org/2000/svg">
<path d="M12 24C5.38317 24 0 18.6168 0 12C0 5.38317 5.38317 0 12 0C18.6168 0 24 5.38317 24 12C24 18.6168 18.6168 24 12 24Z" fill="#FDBF00"/>
<path d="M12 0V24C18.6168 24 24 18.6168 24 12C24 5.38317 18.6168 0 12 0Z" fill="#FF9100"/>
<path d="M14.8594 20.4839L8.7675 20.4759C8.58098 20.4757 8.40225 20.4013 8.27058 20.2693L3.72089 15.7077C3.58922 15.5757 3.51539 15.3967 3.51563 15.2102L3.52411 8.76755C3.52434 8.58103 3.59869 8.4023 3.73069 8.27063L8.29238 3.72094C8.42419 3.58945 8.60278 3.51562 8.78888 3.51562H8.78986L14.8594 3.52359L16.2656 4.2683L17.6719 5.67825L18.4777 7.485L19.0781 7.08825L20.2791 8.29238C20.4108 8.42438 20.4846 8.60334 20.4844 8.78981L20.4759 15.2325C20.4757 15.419 20.4013 15.5978 20.2693 15.7294L19.0781 16.9175L18.375 16.5968L17.6719 18.32L16.2656 19.7226L14.8594 20.4839Z" fill="#FFDE46"/>
<path d="M20.2791 8.2925L19.0781 7.08843L18.4777 7.48522L17.6719 5.67847L16.2656 4.26852L14.8594 3.52377L12 3.52002V20.4803L14.8594 20.4841L16.2656 19.7227L17.6719 18.3202L18.375 16.5969L19.0781 16.9176L20.2693 15.7296C20.4013 15.5979 20.4757 15.4192 20.4759 15.2327L20.4844 8.78999C20.4846 8.60347 20.4108 8.42455 20.2791 8.2925Z" fill="#FFCD00"/>
<path d="M17.6719 18.3202L19.0781 16.9176V7.08842L17.6719 5.67847V18.3202Z" fill="#FDBF00"/>
<path d="M16.2656 19.7226V4.26838L15.7294 3.73073C15.5978 3.59873 15.419 3.52438 15.2325 3.52415L14.8594 3.52368V20.484L15.2102 20.4845H15.2112C15.3973 20.4845 15.5759 20.4106 15.7077 20.2792L16.2656 19.7226Z" fill="#FDBF00"/>
</svg>
