<svg width="164" height="202" viewBox="0 0 164 202" fill="none" xmlns="http://www.w3.org/2000/svg">
<path d="M64.7738 72.7872L19.2746 84.5541C15.2451 85.5963 12.8233 89.7076 13.8654 93.7371L32.8296 167.066C33.8717 171.096 37.983 173.517 42.0125 172.475L87.5118 160.708C91.5413 159.666 93.9631 155.555 92.921 151.525L73.9568 78.1964C72.9147 74.1669 68.8034 71.7451 64.7738 72.7872Z" fill="#E5B65C"/>
<path d="M64.6176 86.7587L24.1137 97.1979C22.4841 97.6178 21.5036 99.2793 21.9235 100.909L23.3608 106.485C23.7808 108.115 25.4423 109.096 27.0718 108.676L67.5758 98.2364C69.2053 97.8164 70.1859 96.1549 69.7659 94.5254L68.3286 88.9488C67.9086 87.3192 66.2472 86.3387 64.6176 86.7587Z" fill="#E8F0FE"/>
<path d="M57.2505 109.898L28.4491 117.346C27.213 117.666 26.4701 118.927 26.7898 120.163C27.1094 121.4 28.3706 122.142 29.6067 121.823L58.4082 114.374C59.6443 114.054 60.3872 112.793 60.0675 111.557C59.7478 110.321 58.4866 109.578 57.2505 109.898Z" stroke="#D9DBE2" stroke-miterlimit="10"/>
<path d="M142.039 62.7557L76.465 51.4172C72.3638 50.7081 68.4642 53.4579 67.755 57.5591L49.9758 160.383C49.2666 164.484 52.0165 168.384 56.1177 169.093L121.692 180.432C125.793 181.141 129.693 178.391 130.402 174.29L148.181 71.4656C148.891 67.3644 146.141 63.4648 142.039 62.7557Z" fill="#E5B65C"/>
<path d="M132.707 78.7688L76.7161 69.0875C75.0607 68.8013 73.4867 69.9112 73.2005 71.5666L71.5861 80.9033C71.2998 82.5587 72.4098 84.1327 74.0651 84.4189L130.056 94.1002C131.711 94.3865 133.285 93.2766 133.571 91.6212L135.186 82.2844C135.472 80.629 134.362 79.055 132.707 78.7688Z" fill="#E8F0FE"/>
<path d="M110.599 102.743L72.053 96.0777C70.3976 95.7915 68.8236 96.9014 68.5374 98.5568C68.2512 100.212 69.3611 101.786 71.0165 102.072L109.562 108.737C111.218 109.024 112.792 107.914 113.078 106.258C113.364 104.603 112.254 103.029 110.599 102.743Z" fill="#E8F0FE"/>
<path d="M18.2249 35.4857C27.6663 35.4857 35.32 27.832 35.32 18.3906C35.32 8.94931 27.6663 1.29559 18.2249 1.29559C8.7836 1.29559 1.12988 8.94931 1.12988 18.3906C1.12988 27.832 8.7836 35.4857 18.2249 35.4857Z" fill="#E5B65C"/>
<path d="M12.4756 61.5389C14.8612 61.5389 16.795 59.6051 16.795 57.2196C16.795 54.834 14.8612 52.9002 12.4756 52.9002C10.0901 52.9002 8.15625 54.834 8.15625 57.2196C8.15625 59.6051 10.0901 61.5389 12.4756 61.5389Z" fill="#EECF7F"/>
<path d="M66.2933 39.8812C69.8968 39.8812 72.818 36.9599 72.818 33.3564C72.818 29.7529 69.8968 26.8317 66.2933 26.8317C62.6898 26.8317 59.7686 29.7529 59.7686 33.3564C59.7686 36.9599 62.6898 39.8812 66.2933 39.8812Z" fill="#EECF7F"/>
<path d="M19.6312 198.834L138.308 198.297C145.213 198.297 149.114 195.107 149.114 188.187L147.456 110.202C147.456 103.297 140.559 97.8907 133.654 97.8907L19.2966 98.3774C12.4068 98.3926 8.60454 106.043 8.60454 112.948L8.02659 183.457C7.98857 190.362 12.7262 198.834 19.6312 198.834Z" fill="#B1B1B1"/>
<path d="M64.6059 72.2872L19.1066 84.0541C15.0771 85.0963 12.6553 89.2076 13.6974 93.2371L32.6616 166.566C33.7037 170.596 37.815 173.017 41.8445 171.975L87.3438 160.208C91.3733 159.166 93.7951 155.055 92.753 151.025L73.7888 77.6964C72.7467 73.6669 68.6354 71.2451 64.6059 72.2872Z" fill="#CCCCCC"/>
<path d="M64.4496 86.2587L23.9457 96.6979C22.3161 97.1178 21.3356 98.7793 21.7556 100.409L23.1928 105.985C23.6128 107.615 25.2743 108.596 26.9039 108.176L67.4078 97.7364C69.0374 97.3164 70.0179 95.6549 69.5979 94.0254L68.1607 88.4488C67.7407 86.8192 66.0792 85.8387 64.4496 86.2587Z" fill="#E6E6E6"/>
<path d="M57.0826 109.398L28.2811 116.846C27.045 117.166 26.3021 118.427 26.6218 119.663C26.9415 120.9 28.2027 121.642 29.4388 121.323L58.2402 113.874C59.4763 113.554 60.2192 112.293 59.8996 111.057C59.5799 109.821 58.3187 109.078 57.0826 109.398Z" stroke="#D9DBE2" stroke-miterlimit="10"/>
<path d="M141.872 62.2557L76.297 50.9172C72.1958 50.2081 68.2962 52.9579 67.5871 57.0591L49.8078 159.883C49.0987 163.984 51.8485 167.884 55.9497 168.593L121.524 179.932C125.625 180.641 129.525 177.891 130.234 173.79L148.013 70.9656C148.723 66.8644 145.973 62.9648 141.872 62.2557Z" fill="#9F9F9F"/>
<path d="M132.539 78.2688L76.5481 68.5875C74.8927 68.3013 73.3187 69.4112 73.0325 71.0666L71.4181 80.4033C71.1319 82.0587 72.2418 83.6327 73.8972 83.9189L129.888 93.6002C131.543 93.8865 133.117 92.7766 133.403 91.1212L135.018 81.7844C135.304 80.129 134.194 78.555 132.539 78.2688Z" fill="#E6E6E6"/>
<path d="M110.431 102.243L71.885 95.5777C70.2297 95.2915 68.6557 96.4014 68.3694 98.0568C68.0832 99.7122 69.1931 101.286 70.8485 101.572L109.394 108.237C111.05 108.524 112.624 107.414 112.91 105.758C113.196 104.103 112.086 102.529 110.431 102.243Z" fill="#E6E6E6"/>
<path d="M135.312 199.488L21.0684 200.704C17.7593 200.694 14.5891 199.373 12.2528 197.029C9.91641 194.686 8.60448 191.512 8.60449 188.202L23.9809 119.51C23.9809 112.606 30.8783 107.199 37.7832 107.199L152.141 107.685C159.046 107.685 162.871 115.336 162.871 122.24L151.768 189.024C151.73 195.929 142.217 199.488 135.312 199.488Z" fill="#DEDEDE"/>
<path d="M18.057 34.9857C27.4983 34.9857 35.152 27.332 35.152 17.8906C35.152 8.44931 27.4983 0.795593 18.057 0.795593C8.61563 0.795593 0.961914 8.44931 0.961914 17.8906C0.961914 27.332 8.61563 34.9857 18.057 34.9857Z" fill="#B1B1B1"/>
<path d="M12.3077 61.0389C14.6932 61.0389 16.6271 59.1051 16.6271 56.7196C16.6271 54.334 14.6932 52.4002 12.3077 52.4002C9.92214 52.4002 7.98828 54.334 7.98828 56.7196C7.98828 59.1051 9.92214 61.0389 12.3077 61.0389Z" fill="#CACACA"/>
<path d="M66.1253 39.3812C69.7288 39.3812 72.65 36.4599 72.65 32.8564C72.65 29.2529 69.7288 26.3317 66.1253 26.3317C62.5218 26.3317 59.6006 29.2529 59.6006 32.8564C59.6006 36.4599 62.5218 39.3812 66.1253 39.3812Z" fill="#CACACA"/>
</svg>
