<svg width="57" height="56" viewBox="0 0 57 56" fill="none" xmlns="http://www.w3.org/2000/svg">
<path d="M37.485 0H8.463C7.655 0 7 0.655 7 1.926V55C7 55.345 7.655 56 8.463 56H48.537C49.345 56 50 55.345 50 55V12.978C50 12.282 49.907 12.058 49.743 11.893L38.107 0.257C37.942 0.093 37.718 0 37.485 0Z" fill="#E9E9E0"/>
<path d="M38 0.151001V12H49.849L38 0.151001Z" fill="#D9D7CA"/>
<path d="M20.0142 33.324C19.6662 33.324 19.3322 33.211 19.0472 32.998C18.0062 32.217 17.8662 31.348 17.9322 30.756C18.1142 29.128 20.1272 27.424 23.9172 25.688C25.4212 22.392 26.8522 18.331 27.7052 14.938C26.7072 12.766 25.7372 9.94796 26.4442 8.29496C26.6922 7.71596 27.0012 7.27196 27.5782 7.07996C27.8062 7.00396 28.3822 6.90796 28.5942 6.90796C29.0982 6.90796 29.5412 7.55696 29.8552 7.95696C30.1502 8.33296 30.8192 9.12996 29.4822 14.759C30.8302 17.543 32.7402 20.379 34.5702 22.321C35.8812 22.084 37.0092 21.963 37.9282 21.963C39.4942 21.963 40.4432 22.328 40.8302 23.08C41.1502 23.702 41.0192 24.429 40.4402 25.24C39.8832 26.019 39.1152 26.431 38.2202 26.431C37.0042 26.431 35.5882 25.663 34.0092 24.146C31.1722 24.739 27.8592 25.797 25.1812 26.968C24.3452 28.742 23.5442 30.171 22.7982 31.219C21.7732 32.654 20.8892 33.324 20.0142 33.324ZM22.6762 28.198C20.5392 29.399 19.6682 30.386 19.6052 30.942C19.5952 31.034 19.5682 31.276 20.0362 31.634C20.1852 31.587 21.0552 31.19 22.6762 28.198ZM36.3132 23.756C37.1282 24.383 37.3272 24.7 37.8602 24.7C38.0942 24.7 38.7612 24.69 39.0702 24.259C39.2192 24.05 39.2772 23.916 39.3002 23.844C39.1772 23.779 39.0142 23.647 38.1252 23.647C37.6202 23.648 36.9852 23.67 36.3132 23.756ZM28.8432 17.174C28.1282 19.648 27.1842 22.319 26.1692 24.738C28.2592 23.927 30.5312 23.219 32.6652 22.718C31.3152 21.15 29.9662 19.192 28.8432 17.174ZM28.2362 8.71196C28.1382 8.74496 26.9062 10.469 28.3322 11.928C29.2812 9.81296 28.2792 8.69796 28.2362 8.71196Z" fill="#CC4B4C"/>
<path d="M48.537 56H8.463C7.655 56 7 55.345 7 54.537V39H50V54.537C50 55.345 49.345 56 48.537 56Z" fill="#CC4B4C"/>
<path d="M17.8851 53H16.2441V42.924H19.1421C19.5701 42.924 19.9941 42.992 20.4131 43.129C20.8321 43.266 21.2081 43.4709 21.5411 43.7439C21.8741 44.0169 22.1431 44.348 22.3481 44.735C22.5531 45.122 22.6561 45.557 22.6561 46.041C22.6561 46.552 22.5691 47.014 22.3961 47.429C22.2231 47.844 21.9811 48.1929 21.6711 48.4749C21.3611 48.7569 20.9871 48.976 20.5501 49.131C20.1131 49.286 19.6291 49.3629 19.1011 49.3629H17.8841V53H17.8851ZM17.8851 44.1679V48.16H19.3891C19.5891 48.16 19.7871 48.1259 19.9841 48.0569C20.1801 47.9889 20.3601 47.877 20.5241 47.722C20.6881 47.567 20.8201 47.351 20.9201 47.073C21.0201 46.795 21.0701 46.451 21.0701 46.041C21.0701 45.877 21.0471 45.6869 21.0021 45.4739C20.9561 45.2599 20.8631 45.055 20.7221 44.859C20.5801 44.663 20.3821 44.499 20.1271 44.367C19.8721 44.235 19.5341 44.1689 19.1151 44.1689H17.8851V44.1679Z" fill="white"/>
<path d="M32.719 47.6819C32.719 48.5109 32.63 49.2199 32.452 49.8079C32.274 50.3959 32.049 50.888 31.775 51.285C31.501 51.682 31.194 51.994 30.852 52.222C30.51 52.45 30.18 52.62 29.861 52.735C29.542 52.849 29.25 52.9219 28.986 52.9539C28.722 52.9839 28.526 53 28.398 53H24.584V42.924H27.619C28.467 42.924 29.212 43.059 29.854 43.327C30.496 43.595 31.03 43.954 31.454 44.4C31.878 44.846 32.194 45.355 32.404 45.924C32.614 46.494 32.719 47.0799 32.719 47.6819ZM27.852 51.797C28.964 51.797 29.766 51.4419 30.258 50.7309C30.75 50.0199 30.996 48.9899 30.996 47.6409C30.996 47.2219 30.946 46.8069 30.846 46.3969C30.745 45.9869 30.552 45.616 30.265 45.283C29.978 44.95 29.588 44.681 29.096 44.476C28.604 44.271 27.966 44.1679 27.182 44.1679H26.225V51.797H27.852Z" fill="white"/>
<path d="M36.7661 44.1679V47.34H40.9771V48.4609H36.7661V53H35.0981V42.924H41.4001V44.1679H36.7661Z" fill="white"/>
</svg>
