<svg width="10" height="10" viewBox="0 0 10 10" fill="none" xmlns="http://www.w3.org/2000/svg">
<path d="M9.3125 4.4375H5.5625V0.6875C5.5625 0.59375 5.46875 0.5 5.375 0.5H4.625C4.50781 0.5 4.4375 0.59375 4.4375 0.6875V4.4375H0.6875C0.570312 4.4375 0.5 4.53125 0.5 4.625V5.375C0.5 5.49219 0.570312 5.5625 0.6875 5.5625H4.4375V9.3125C4.4375 9.42969 4.50781 9.5 4.625 9.5H5.375C5.46875 9.5 5.5625 9.42969 5.5625 9.3125V5.5625H9.3125C9.40625 5.5625 9.5 5.49219 9.5 5.375V4.625C9.5 4.53125 9.40625 4.4375 9.3125 4.4375Z" fill="#644AE7"/>
</svg>
