<svg width="12" height="12" viewBox="0 0 12 12" fill="none" xmlns="http://www.w3.org/2000/svg">
<path d="M10.3125 5.4375H6.5625V1.6875C6.5625 1.59375 6.46875 1.5 6.375 1.5H5.625C5.50781 1.5 5.4375 1.59375 5.4375 1.6875V5.4375H1.6875C1.57031 5.4375 1.5 5.53125 1.5 5.625V6.375C1.5 6.49219 1.57031 6.5625 1.6875 6.5625H5.4375V10.3125C5.4375 10.4297 5.50781 10.5 5.625 10.5H6.375C6.46875 10.5 6.5625 10.4297 6.5625 10.3125V6.5625H10.3125C10.4062 6.5625 10.5 6.49219 10.5 6.375V5.625C10.5 5.53125 10.4062 5.4375 10.3125 5.4375Z" fill="white"/>
</svg>
