<svg width="24" height="24" viewBox="0 0 24 24" fill="none" xmlns="http://www.w3.org/2000/svg">
<path fill-rule="evenodd" clip-rule="evenodd" d="M5.24902 3.75C5.24902 3.33579 5.58481 3 5.99902 3H17.999C18.4132 3 18.749 3.33579 18.749 3.75V7.5C18.749 7.91421 18.4132 8.25 17.999 8.25C17.5848 8.25 17.249 7.91421 17.249 7.5V4.5H6.74902V7.5C6.74902 7.91421 6.41324 8.25 5.99902 8.25C5.58481 8.25 5.24902 7.91421 5.24902 7.5V3.75Z" fill="#222D34"/>
<path fill-rule="evenodd" clip-rule="evenodd" d="M5.24902 14.25C5.24902 13.8358 5.58481 13.5 5.99902 13.5H17.999C18.4132 13.5 18.749 13.8358 18.749 14.25V20.625C18.749 21.0392 18.4132 21.375 17.999 21.375H5.99902C5.58481 21.375 5.24902 21.0392 5.24902 20.625V14.25ZM6.74902 15V19.875H17.249V15H6.74902Z" fill="#222D34"/>
<path fill-rule="evenodd" clip-rule="evenodd" d="M4.24902 8.25C3.70812 8.25 3.37402 8.64118 3.37402 9V15.75H5.99902C6.41324 15.75 6.74902 16.0858 6.74902 16.5C6.74902 16.9142 6.41324 17.25 5.99902 17.25H2.62402C2.20981 17.25 1.87402 16.9142 1.87402 16.5V9C1.87402 7.70197 2.995 6.75 4.24902 6.75H19.749C21.003 6.75 22.124 7.70197 22.124 9V16.5C22.124 16.9142 21.7882 17.25 21.374 17.25H17.999C17.5848 17.25 17.249 16.9142 17.249 16.5C17.249 16.0858 17.5848 15.75 17.999 15.75H20.624V9C20.624 8.64118 20.2899 8.25 19.749 8.25H4.24902Z" fill="#222D34"/>
<path d="M17.625 12C18.2463 12 18.75 11.4963 18.75 10.875C18.75 10.2537 18.2463 9.75 17.625 9.75C17.0037 9.75 16.5 10.2537 16.5 10.875C16.5 11.4963 17.0037 12 17.625 12Z" fill="#222D34"/>
</svg>
