<svg width="17" height="16" viewBox="0 0 17 16" fill="none" xmlns="http://www.w3.org/2000/svg">
<path fill-rule="evenodd" clip-rule="evenodd" d="M7.8335 2.66665C5.25617 2.66665 3.16683 4.75598 3.16683 7.33331C3.16683 9.91064 5.25617 12 7.8335 12C10.4108 12 12.5002 9.91064 12.5002 7.33331C12.5002 4.75598 10.4108 2.66665 7.8335 2.66665ZM1.8335 7.33331C1.8335 4.0196 4.51979 1.33331 7.8335 1.33331C11.1472 1.33331 13.8335 4.0196 13.8335 7.33331C13.8335 10.647 11.1472 13.3333 7.8335 13.3333C4.51979 13.3333 1.8335 10.647 1.8335 7.33331Z" fill="#182538"/>
<path fill-rule="evenodd" clip-rule="evenodd" d="M11.1286 10.6286C11.389 10.3683 11.8111 10.3683 12.0714 10.6286L14.9714 13.5286C15.2318 13.789 15.2318 14.2111 14.9714 14.4714C14.7111 14.7318 14.289 14.7318 14.0286 14.4714L11.1286 11.5714C10.8683 11.3111 10.8683 10.889 11.1286 10.6286Z" fill="#182538"/>
</svg>
