<svg width="20" height="17" viewBox="0 0 20 17" fill="none" xmlns="http://www.w3.org/2000/svg">
<path d="M10.5312 9C12.0312 9 13.3125 9.28125 14.3438 9.8125C15.4375 10.4062 16 11.2188 16 12.2188C16 13.0312 15.6562 13.7812 15 14.4688C14.375 15.0938 13.5312 15.5938 12.4688 15.9688C11.4062 16.3438 10.3125 16.5 9.15625 16.5C8.09375 16.5 7 16.3438 5.8125 15.9688L4 15.5H2C1.4375 15.5 0.96875 15.2812 0.59375 14.8438C0.1875 14.4062 0 13.9062 0 13.3125C0 12.7188 0.1875 12.2188 0.5625 11.7812C0.9375 11.375 1.4375 11.1562 2 11.1562H4C4.78125 11.1562 5.4375 11.0625 5.96875 10.8438C6.28125 10.7188 6.65625 10.5 7.125 10.1562L7.28125 10.0625C7.71875 9.75 8.21875 9.5 8.84375 9.3125C9.4375 9.125 10 9 10.5312 9ZM3.5 14.5V12.1562H2C1.71875 12.1562 1.46875 12.2812 1.28125 12.5C1.09375 12.7188 1 13 1 13.3125C1 13.625 1.09375 13.9062 1.28125 14.1562C1.46875 14.4062 1.71875 14.5 2 14.5H3.5ZM6.0625 15C7.25 15.375 8.4375 15.5312 9.625 15.4688C10.6562 15.4688 11.5938 15.2812 12.4688 14.9062C13.2188 14.5938 13.8438 14.2188 14.3125 13.7188C14.75 13.2188 15 12.7188 15 12.2188C15 11.7812 14.75 11.3438 14.2812 10.9688C13.7812 10.5938 13.1562 10.3438 12.4062 10.1562C11.625 9.96875 10.8438 9.9375 10.0625 10.0625C9.1875 10.1875 8.40625 10.5 7.71875 10.9688C7.21875 11.3438 6.8125 11.5938 6.5 11.7188C5.9375 11.9688 5.25 12.0938 4.5 12.125V14.5938L6.0625 15ZM13.1562 0.5C14.3125 0.5 15.4062 0.6875 16.4688 1.0625C17.5312 1.4375 18.375 1.90625 19 2.53125C19.6562 3.21875 20 3.96875 20 4.78125C20 5.8125 19.4375 6.625 18.3438 7.1875C17.3125 7.75 16.0312 8 14.5312 8C14 8 13.4375 7.90625 12.8438 7.71875C12.2188 7.53125 11.7188 7.25 11.2812 6.9375L11.1562 6.84375C10.6562 6.53125 10.2812 6.28125 9.96875 6.15625C9.4375 5.96875 8.78125 5.84375 8 5.84375H6C5.4375 5.84375 4.9375 5.65625 4.5625 5.21875C4.1875 4.8125 4 4.3125 4 3.71875C4 3.125 4.1875 2.59375 4.59375 2.15625C4.96875 1.71875 5.4375 1.5 6 1.5H8L9.8125 1.03125C11 0.6875 12.0938 0.5 13.1562 0.5ZM7.5 4.84375V2.5H6C5.71875 2.5 5.46875 2.625 5.28125 2.875C5.09375 3.125 5 3.40625 5 3.71875C5 4.03125 5.09375 4.3125 5.28125 4.53125C5.46875 4.75 5.71875 4.84375 6 4.84375H7.5ZM14.5312 7C15.7188 7 16.75 6.8125 17.5938 6.4375C18.5312 6.03125 19 5.46875 19 4.78125C19 4.03125 18.5938 3.40625 17.8438 2.84375C17.2188 2.40625 16.4062 2.0625 15.4062 1.8125C14.5625 1.625 13.8125 1.5 13.1562 1.5C12.2188 1.5 11.1875 1.6875 10.0938 2L8.5 2.40625V4.875C9.25 4.9375 9.9375 5.0625 10.5312 5.3125C10.8438 5.46875 11.25 5.71875 11.75 6.0625L11.8438 6.125C12.2188 6.375 12.6562 6.59375 13.1562 6.75C13.6562 6.9375 14.0938 7 14.5312 7Z" fill="white"/>
</svg>
