<svg width="27" height="26" viewBox="0 0 27 26" fill="none" xmlns="http://www.w3.org/2000/svg">
<path d="M13.5 0C10.9288 0 8.41543 0.762437 6.27759 2.1909C4.13975 3.61935 2.47351 5.64968 1.48957 8.02512C0.505633 10.4006 0.248189 13.0144 0.749797 15.5362C1.25141 18.0579 2.48953 20.3743 4.30762 22.1924C6.1257 24.0105 8.44208 25.2486 10.9638 25.7502C13.4856 26.2518 16.0995 25.9944 18.4749 25.0104C20.8503 24.0265 22.8807 22.3603 24.3091 20.2224C25.7376 18.0846 26.5 15.5712 26.5 13C26.496 9.55341 25.1251 6.24912 22.688 3.81201C20.2509 1.3749 16.9466 0.00398351 13.5 0ZM19.6914 10.7236L12.3574 17.7236C12.171 17.9011 11.9234 18 11.666 18C11.4086 18 11.1611 17.9011 10.9746 17.7236L7.3086 14.2236C7.11707 14.0402 7.0062 13.7882 7.00033 13.523C6.99446 13.2579 7.09407 13.0012 7.27729 12.8095C7.46051 12.6177 7.71235 12.5065 7.9775 12.5003C8.24265 12.4941 8.49942 12.5934 8.69141 12.7764L11.666 15.6172L18.3086 9.27637C18.5006 9.09339 18.7574 8.9941 19.0225 9.00031C19.2877 9.00651 19.5395 9.11771 19.7227 9.30947C19.9059 9.50123 20.0056 9.75788 19.9997 10.023C19.9938 10.2882 19.8829 10.5402 19.6914 10.7236Z" fill="#36D187"/>
</svg>
