<svg width="37" height="24" viewBox="0 0 37 24" fill="none" xmlns="http://www.w3.org/2000/svg">
<g clip-path="url(#clip0)">
<path d="M0.5 3C0.5 1.34315 1.84315 0 3.5 0H33.5C35.1569 0 36.5 1.34315 36.5 3V21C36.5 22.6569 35.1569 24 33.5 24H3.5C1.84315 24 0.5 22.6569 0.5 21V3Z" fill="white"/>
<path d="M31.4829 7.52637H29.5969C29.0268 7.52637 28.5882 7.70181 28.325 8.27198L24.7285 16.4737H27.2724C27.2724 16.4737 27.711 15.3772 27.7987 15.1141C28.0618 15.1141 30.5618 15.1141 30.9127 15.1141C31.0004 15.4211 31.2197 16.4299 31.2197 16.4299H33.5004L31.4829 7.52637ZM28.5004 13.272C28.7197 12.7457 29.4654 10.772 29.4654 10.772C29.4654 10.8158 29.6847 10.2457 29.7724 9.93865L29.9478 10.7281C29.9478 10.7281 30.4303 12.8772 30.518 13.3158H28.5004V13.272Z" fill="#3362AB"/>
<path d="M24.9034 13.5351C24.9034 15.3772 23.2367 16.6053 20.649 16.6053C19.5525 16.6053 18.4999 16.386 17.9297 16.1228L18.2806 14.1053L18.5876 14.2369C19.3771 14.5878 19.9034 14.7193 20.8683 14.7193C21.57 14.7193 22.3157 14.4562 22.3157 13.8421C22.3157 13.4474 22.0086 13.1842 21.0437 12.7457C20.1227 12.3071 18.8946 11.6053 18.8946 10.3334C18.8946 8.57899 20.6051 7.39478 23.0174 7.39478C23.9385 7.39478 24.7279 7.57021 25.2104 7.78951L24.8595 9.71934L24.6841 9.5439C24.2455 9.36846 23.6753 9.19302 22.842 9.19302C21.9209 9.23688 21.4823 9.63162 21.4823 9.98249C21.4823 10.3772 22.0086 10.6842 22.842 11.079C24.2455 11.7369 24.9034 12.4825 24.9034 13.5351Z" fill="#3362AB"/>
<path d="M3.5 7.61404L3.54386 7.4386H7.31579C7.8421 7.4386 8.23684 7.61404 8.36842 8.18421L9.20175 12.1316C8.36842 10.0263 6.4386 8.31579 3.5 7.61404Z" fill="#F9B50B"/>
<path d="M14.5086 7.5264L10.6928 16.4299H8.10509L5.91211 8.97377C7.49106 9.98254 8.80685 11.5615 9.2893 12.658L9.55246 13.579L11.9209 7.48254H14.5086V7.5264Z" fill="#3362AB"/>
<path d="M15.5175 7.48254H17.9298L16.3947 16.4299H13.9824L15.5175 7.48254Z" fill="#3362AB"/>
</g>
<defs>
<clipPath id="clip0">
<rect width="36" height="24" fill="white" transform="translate(0.5)"/>
</clipPath>
</defs>
</svg>
